<mxfile host="Electron" agent="Mozilla/5.0 (Macintosh; Intel Mac OS X 10_15_7) AppleWebKit/537.36 (KHTML, like Gecko) draw.io/24.7.17 Chrome/128.0.6613.36 Electron/32.0.1 Safari/537.36" version="24.7.17">
  <diagram name="Page-1" id="6A11yo4NIoz2Vb5Ziqz1">
    <mxGraphModel dx="637" dy="540" grid="1" gridSize="10" guides="1" tooltips="1" connect="1" arrows="1" fold="1" page="1" pageScale="1" pageWidth="850" pageHeight="1100" background="#ffffff" math="0" shadow="0">
      <root>
        <mxCell id="0" />
        <mxCell id="1" parent="0" />
        <mxCell id="QmzUeY7-OwkA1-VYbQcP-17" style="edgeStyle=orthogonalEdgeStyle;rounded=1;orthogonalLoop=1;jettySize=auto;html=1;exitX=0.5;exitY=1;exitDx=0;exitDy=0;labelBackgroundColor=none;fontColor=#000000;strokeColor=#666666;curved=0;" edge="1" parent="1" source="QmzUeY7-OwkA1-VYbQcP-1" target="QmzUeY7-OwkA1-VYbQcP-4">
          <mxGeometry relative="1" as="geometry" />
        </mxCell>
        <mxCell id="QmzUeY7-OwkA1-VYbQcP-23" value="&lt;font style=&quot;font-size: 12px;&quot; color=&quot;#000000&quot;&gt;Stores Bindings&lt;/font&gt;" style="edgeLabel;html=1;align=center;verticalAlign=middle;resizable=0;points=[];labelBackgroundColor=none;" vertex="1" connectable="0" parent="QmzUeY7-OwkA1-VYbQcP-17">
          <mxGeometry x="-0.0178" y="1" relative="1" as="geometry">
            <mxPoint x="16" y="-9" as="offset" />
          </mxGeometry>
        </mxCell>
        <mxCell id="QmzUeY7-OwkA1-VYbQcP-1" value="Kyma Environment Broker" style="rounded=1;whiteSpace=wrap;html=1;labelBackgroundColor=none;fillColor=#ffffff;strokeColor=#666666;fontColor=#000000;" vertex="1" parent="1">
          <mxGeometry x="270" y="310" width="120" height="120" as="geometry" />
        </mxCell>
        <mxCell id="QmzUeY7-OwkA1-VYbQcP-15" value="&lt;span style=&quot;font-family: Helvetica; font-size: 12px; font-style: normal; font-variant-ligatures: normal; font-variant-caps: normal; font-weight: 400; letter-spacing: normal; orphans: 2; text-align: center; text-indent: 0px; text-transform: none; widows: 2; word-spacing: 0px; -webkit-text-stroke-width: 0px; white-space: nowrap; text-decoration-thickness: initial; text-decoration-style: initial; text-decoration-color: initial; float: none; display: inline !important;&quot;&gt;DELETE Bindings&lt;/span&gt;" style="edgeStyle=orthogonalEdgeStyle;rounded=0;orthogonalLoop=1;jettySize=auto;html=1;labelBackgroundColor=none;fontColor=#000000;strokeColor=#666666;" edge="1" parent="1" source="QmzUeY7-OwkA1-VYbQcP-2" target="QmzUeY7-OwkA1-VYbQcP-1">
          <mxGeometry y="-10" relative="1" as="geometry">
            <mxPoint as="offset" />
          </mxGeometry>
        </mxCell>
        <mxCell id="QmzUeY7-OwkA1-VYbQcP-2" value="Cleanup Job" style="rounded=1;whiteSpace=wrap;html=1;strokeColor=#666666;fillColor=#ffffff;fontColor=#000000;" vertex="1" parent="1">
          <mxGeometry x="550" y="335" width="120" height="70" as="geometry" />
        </mxCell>
        <mxCell id="QmzUeY7-OwkA1-VYbQcP-4" value="Bindings DB Table" style="shape=cylinder3;whiteSpace=wrap;html=1;boundedLbl=1;backgroundOutline=1;size=15;strokeColor=#666666;fillColor=#ffffff;fontColor=#000000;" vertex="1" parent="1">
          <mxGeometry x="440" y="410" width="60" height="80" as="geometry" />
        </mxCell>
        <mxCell id="QmzUeY7-OwkA1-VYbQcP-6" value="" style="endArrow=classic;html=1;rounded=0;entryX=0;entryY=0.25;entryDx=0;entryDy=0;labelBackgroundColor=none;fontColor=#000000;strokeColor=#666666;" edge="1" parent="1" target="QmzUeY7-OwkA1-VYbQcP-1">
          <mxGeometry width="50" height="50" relative="1" as="geometry">
            <mxPoint x="160" y="340" as="sourcePoint" />
            <mxPoint x="180" y="340" as="targetPoint" />
          </mxGeometry>
        </mxCell>
        <mxCell id="QmzUeY7-OwkA1-VYbQcP-10" value="PUT Bindings" style="edgeLabel;html=1;align=center;verticalAlign=middle;resizable=0;points=[];labelBackgroundColor=none;fontColor=#000000;" vertex="1" connectable="0" parent="QmzUeY7-OwkA1-VYbQcP-6">
          <mxGeometry relative="1" as="geometry">
            <mxPoint x="-5" y="-10" as="offset" />
          </mxGeometry>
        </mxCell>
        <mxCell id="QmzUeY7-OwkA1-VYbQcP-7" value="" style="endArrow=classic;html=1;rounded=0;entryX=0;entryY=0.5;entryDx=0;entryDy=0;labelBackgroundColor=none;fontColor=#000000;strokeColor=#666666;" edge="1" parent="1" target="QmzUeY7-OwkA1-VYbQcP-1">
          <mxGeometry width="50" height="50" relative="1" as="geometry">
            <mxPoint x="160" y="370" as="sourcePoint" />
            <mxPoint x="260" y="375" as="targetPoint" />
          </mxGeometry>
        </mxCell>
        <mxCell id="QmzUeY7-OwkA1-VYbQcP-12" value="GET Bindings" style="edgeLabel;html=1;align=center;verticalAlign=middle;resizable=0;points=[];labelBackgroundColor=none;fontColor=#000000;" vertex="1" connectable="0" parent="QmzUeY7-OwkA1-VYbQcP-7">
          <mxGeometry x="-0.379" relative="1" as="geometry">
            <mxPoint x="16" y="-10" as="offset" />
          </mxGeometry>
        </mxCell>
        <mxCell id="QmzUeY7-OwkA1-VYbQcP-9" value="" style="endArrow=classic;html=1;rounded=0;entryX=0;entryY=0.75;entryDx=0;entryDy=0;labelBackgroundColor=none;fontColor=#000000;strokeColor=#666666;" edge="1" parent="1" target="QmzUeY7-OwkA1-VYbQcP-1">
          <mxGeometry width="50" height="50" relative="1" as="geometry">
            <mxPoint x="160" y="400" as="sourcePoint" />
            <mxPoint x="220" y="390" as="targetPoint" />
          </mxGeometry>
        </mxCell>
        <mxCell id="QmzUeY7-OwkA1-VYbQcP-14" value="DELETE Bindings" style="edgeLabel;html=1;align=center;verticalAlign=middle;resizable=0;points=[];labelBackgroundColor=none;fontColor=#000000;" vertex="1" connectable="0" parent="QmzUeY7-OwkA1-VYbQcP-9">
          <mxGeometry x="-0.3648" y="1" relative="1" as="geometry">
            <mxPoint x="15" y="-9" as="offset" />
          </mxGeometry>
        </mxCell>
        <mxCell id="QmzUeY7-OwkA1-VYbQcP-16" style="edgeStyle=orthogonalEdgeStyle;rounded=1;orthogonalLoop=1;jettySize=auto;html=1;entryX=1;entryY=0.5;entryDx=0;entryDy=0;entryPerimeter=0;exitX=0.5;exitY=1;exitDx=0;exitDy=0;labelBackgroundColor=none;fontColor=#000000;strokeColor=#666666;curved=0;" edge="1" parent="1" source="QmzUeY7-OwkA1-VYbQcP-2" target="QmzUeY7-OwkA1-VYbQcP-4">
          <mxGeometry relative="1" as="geometry" />
        </mxCell>
        <mxCell id="QmzUeY7-OwkA1-VYbQcP-22" value="&lt;font style=&quot;font-size: 12px;&quot;&gt;Loads Bindings&lt;/font&gt;" style="edgeLabel;html=1;align=center;verticalAlign=middle;resizable=0;points=[];labelBackgroundColor=none;fontColor=#000000;" vertex="1" connectable="0" parent="QmzUeY7-OwkA1-VYbQcP-16">
          <mxGeometry x="0.0398" y="-3" relative="1" as="geometry">
            <mxPoint x="-14" y="-7" as="offset" />
          </mxGeometry>
        </mxCell>
      </root>
    </mxGraphModel>
  </diagram>
</mxfile>
